<?xml version="1.0" encoding="utf-8"?>
<!-- Generator: Adobe Illustrator 22.0.1, SVG Export Plug-In . SVG Version: 6.00 Build 0)  -->
<svg version="1.1" id="Capa_1" xmlns="http://www.w3.org/2000/svg" xmlns:xlink="http://www.w3.org/1999/xlink" x="0px" y="0px"
	 viewBox="0 0 32 32" style="enable-background:new 0 0 32 32;" xml:space="preserve">
<style type="text/css">
	.st0{fill:#58A05B;}
</style>
<g>
	<path id="XMLID_8707_" class="st0" d="M0.8,15.7l12.9,12.9c1.2,1.2,3.1,1.2,4.3,0L31,15.7c0.6-0.6,0.9-1.4,0.9-2.1
		c0-0.8-0.3-1.6-0.9-2.1l-7.8-7.8c-1.2-1.2-3.1-1.2-4.3,0L17.6,5l0,0l-1.7,1.7l-3-3c-0.6-0.6-1.4-0.9-2.1-0.9
		c-0.8,0-1.6,0.3-2.1,0.9l-7.8,7.8C0.2,12,0,12.8,0,13.6C0,14.4,0.2,15.1,0.8,15.7z M15.9,10.2l1.8,1.8c0.5,0.5,0.7,1.1,0.7,1.8
		c0,0.7-0.3,1.3-0.7,1.8c-0.5,0.5-1.1,0.7-1.8,0.7c-0.7,0-1.3-0.3-1.8-0.7c-0.5-0.5-0.7-1.1-0.7-1.8c0-0.7,0.3-1.3,0.7-1.8
		L15.9,10.2z M2.6,13.2l7.8-7.8c0.2-0.2,0.3-0.2,0.4-0.2s0.3,0,0.4,0.2l3,3l-1.7,1.8C11.6,11,11,12.3,11,13.6s0.5,2.5,1.5,3.4
		c0.9,0.9,2.1,1.5,3.4,1.5s2.5-0.5,3.4-1.5c0.9-0.9,1.5-2.1,1.5-3.4s-0.5-2.5-1.5-3.4l-1.8-1.8l3.1-3c0.2-0.2,0.3-0.2,0.4-0.2
		c0.1,0,0.3,0,0.4,0.2l7.8,7.8l0,0c0.2,0.2,0.2,0.3,0.2,0.4s0,0.3-0.2,0.4L16.3,26.9c-0.2,0.2-0.6,0.2-0.8,0L2.6,14
		c-0.2-0.2-0.2-0.3-0.2-0.4C2.4,13.5,2.4,13.3,2.6,13.2z"/>
</g>
</svg>
