<?xml version="1.0" encoding="utf-8"?>
<!-- Generator: Adobe Illustrator 22.0.1, SVG Export Plug-In . SVG Version: 6.00 Build 0)  -->
<svg version="1.1" id="Capa_1" xmlns="http://www.w3.org/2000/svg" xmlns:xlink="http://www.w3.org/1999/xlink" x="0px" y="0px"
	 viewBox="0 0 157 30" style="enable-background:new 0 0 157 30;" xml:space="preserve">
<style type="text/css">
	.st0{fill:#58A05B;}
	.st1{fill:#1C3643;}
</style>
<g>
	<path id="XMLID_8707_" class="st0" d="M3.6,14.7L16.9,28c1.2,1.2,3.2,1.2,4.4,0l13.3-13.3c0.6-0.6,0.9-1.4,0.9-2.2
		s-0.3-1.6-0.9-2.2l-8-8c-1.2-1.2-3.2-1.2-4.4,0l-1.4,1.4l0,0l-1.7,1.7L16,2.3c-0.6-0.6-1.4-0.9-2.2-0.9s-1.6,0.3-2.2,0.9l-8,8
		c-0.6,0.6-0.9,1.4-0.9,2.2C2.7,13.3,3,14.1,3.6,14.7z M19.1,9l1.8,1.8c0.5,0.5,0.7,1.1,0.7,1.8s-0.3,1.3-0.7,1.8
		c-0.5,0.5-1.1,0.7-1.8,0.7s-1.3-0.3-1.8-0.7c-0.5-0.5-0.7-1.1-0.7-1.8s0.3-1.3,0.7-1.8L19.1,9z M5.4,12.1l8-8
		c0.2-0.2,0.3-0.2,0.4-0.2c0.1,0,0.3,0,0.4,0.2l3.1,3.1L15.6,9c-0.9,0.9-1.5,2.2-1.5,3.5s0.5,2.6,1.5,3.5c0.9,0.9,2.2,1.5,3.5,1.5
		s2.6-0.5,3.5-1.5c0.9-0.9,1.5-2.2,1.5-3.5S23.6,9.9,22.6,9l-1.8-1.8L24,4.1c0.2-0.2,0.3-0.2,0.4-0.2s0.3,0,0.4,0.2l8,8l0,0
		c0.2,0.2,0.2,0.3,0.2,0.4c0,0.1,0,0.3-0.2,0.4L19.5,26.2c-0.2,0.2-0.6,0.2-0.8,0L5.4,12.9c-0.2-0.2-0.2-0.3-0.2-0.4
		C5.2,12.4,5.2,12.2,5.4,12.1z"/>
	<g>
		<path class="st1" d="M44.4,21.1V8.2h5.5c0.6,0,1.2,0.1,1.7,0.4c0.5,0.3,1,0.6,1.3,1c0.4,0.4,0.7,0.9,0.9,1.4s0.3,1,0.3,1.6
			s-0.1,1.1-0.3,1.6s-0.5,1-0.8,1.4c-0.4,0.4-0.8,0.7-1.3,1C51.2,16.8,50.6,17,50,17h-2.6v4.1C47.4,21.1,44.4,21.1,44.4,21.1z
			 M47.4,14.4h2.4c0.3,0,0.7-0.2,0.9-0.5c0.3-0.3,0.4-0.7,0.4-1.3c0-0.3,0-0.6-0.1-0.8s-0.2-0.4-0.3-0.5S50.4,11,50.2,11
			c-0.2-0.1-0.3-0.1-0.5-0.1h-2.3C47.4,10.9,47.4,14.4,47.4,14.4z"/>
		<path class="st1" d="M55.4,7.9h2.9v9.8c0,0.7,0.3,1.1,0.9,1.1c0.1,0,0.3,0,0.5-0.1c0.2,0,0.3-0.1,0.5-0.2l0.4,2.2
			c-0.4,0.2-0.8,0.3-1.2,0.4s-0.9,0.1-1.3,0.1c-0.8,0-1.5-0.2-1.9-0.7c-0.4-0.4-0.7-1.1-0.7-1.9V7.9H55.4z"/>
		<path class="st1" d="M64.2,21.3c-0.5,0-0.9-0.1-1.3-0.2c-0.4-0.2-0.8-0.4-1-0.6c-0.3-0.3-0.5-0.6-0.7-1s-0.3-0.8-0.3-1.2
			c0-0.5,0.1-0.9,0.3-1.3s0.5-0.7,0.8-1c0.4-0.3,0.8-0.5,1.3-0.7s1-0.2,1.6-0.2c0.4,0,0.8,0,1.2,0.1c0.4,0.1,0.7,0.2,1,0.3V15
			c0-1.1-0.6-1.6-1.9-1.6c-0.5,0-1,0.1-1.5,0.3s-1,0.4-1.5,0.8l-0.9-1.8c0.6-0.4,1.3-0.7,2-0.9s1.4-0.3,2.2-0.3c1.4,0,2.5,0.3,3.3,1
			s1.2,1.7,1.2,3v2.4c0,0.3,0,0.5,0.1,0.6s0.3,0.2,0.5,0.2v2.4c-0.3,0.1-0.5,0.1-0.7,0.1s-0.4,0-0.6,0c-0.5,0-1-0.1-1.2-0.3
			c-0.3-0.2-0.5-0.5-0.5-0.9l-0.1-0.4c-0.4,0.5-0.9,1-1.5,1.2C65.5,21.1,64.9,21.3,64.2,21.3z M65.1,19.2c0.3,0,0.6-0.1,0.9-0.2
			s0.5-0.3,0.7-0.4c0.3-0.2,0.4-0.4,0.4-0.7V17c-0.3-0.1-0.5-0.2-0.8-0.2c-0.3-0.1-0.6-0.1-0.8-0.1c-0.5,0-1,0.1-1.3,0.4
			c-0.3,0.2-0.5,0.6-0.5,0.9s0.1,0.6,0.4,0.9C64.3,19.1,64.7,19.2,65.1,19.2z"/>
		<path class="st1" d="M78.2,20.6c-0.4,0.2-0.9,0.3-1.4,0.5c-0.5,0.1-1,0.2-1.5,0.2c-0.4,0-0.7,0-1-0.1s-0.6-0.2-0.8-0.4
			c-0.2-0.2-0.4-0.5-0.6-0.8c-0.1-0.3-0.2-0.7-0.2-1.2v-5h-1.2v-2.2h1.2v-3h2.9v3h1.9v2.2h-1.9v4c0,0.3,0.1,0.5,0.2,0.7
			c0.2,0.1,0.4,0.2,0.6,0.2s0.4,0,0.7-0.1c0.2-0.1,0.4-0.2,0.6-0.2L78.2,20.6z"/>
		<path class="st1" d="M78.8,19.3l4.8-5.8H79v-2h7.6v1.7L81.8,19h4.9v2h-8v-1.7H78.8z"/>
		<path class="st1" d="M88.3,10.5V7.9h2.9v2.6H88.3z M88.3,21.1v-9.5h2.9v9.5H88.3z"/>
		<path class="st1" d="M101.1,12c0,0-0.2-0.1-0.4-0.3c-0.2-0.1-0.5-0.3-0.8-0.4c-0.3-0.1-0.7-0.3-1.1-0.4c-0.4-0.1-0.8-0.2-1.2-0.2
			c-1.1,0-1.6,0.4-1.6,1.1c0,0.2,0.1,0.4,0.2,0.5s0.3,0.3,0.5,0.4c0.2,0.1,0.5,0.2,0.8,0.3s0.7,0.2,1.2,0.3c0.6,0.2,1.2,0.4,1.7,0.6
			c0.5,0.2,0.9,0.4,1.3,0.7c0.3,0.3,0.6,0.7,0.8,1.1c0.2,0.4,0.3,0.9,0.3,1.5c0,0.7-0.1,1.3-0.4,1.8s-0.6,0.9-1.1,1.2
			c-0.4,0.3-1,0.5-1.5,0.7c-0.6,0.1-1.2,0.2-1.8,0.2c-0.5,0-1,0-1.4-0.1c-0.5-0.1-1-0.2-1.4-0.3c-0.5-0.1-0.9-0.3-1.4-0.5
			c-0.4-0.2-0.8-0.4-1.2-0.7l1.3-2.6c0,0.1,0.2,0.2,0.5,0.3c0.3,0.2,0.6,0.3,1,0.5s0.8,0.3,1.3,0.5c0.5,0.1,1,0.2,1.5,0.2
			c1,0,1.6-0.3,1.6-1c0-0.2-0.1-0.4-0.2-0.6c-0.2-0.2-0.4-0.3-0.7-0.4c-0.3-0.1-0.6-0.2-1-0.4c-0.4-0.1-0.8-0.2-1.2-0.4
			c-0.6-0.2-1.1-0.4-1.5-0.6c-0.4-0.2-0.8-0.5-1.1-0.7c-0.3-0.3-0.5-0.6-0.6-1s-0.2-0.8-0.2-1.3c0-0.7,0.1-1.3,0.4-1.8s0.6-1,1-1.3
			c0.4-0.4,0.9-0.6,1.5-0.8s1.2-0.3,1.8-0.3c0.4,0,0.9,0,1.3,0.1s0.9,0.2,1.2,0.3c0.4,0.1,0.8,0.3,1.1,0.5c0.3,0.2,0.7,0.3,0.9,0.5
			L101.1,12z"/>
		<path class="st1" d="M107.8,21.3c-0.6,0-1.2-0.1-1.7-0.4s-0.9-0.6-1.3-1s-0.6-1-0.9-1.6c-0.2-0.6-0.3-1.3-0.3-2
			c0-0.7,0.1-1.3,0.3-1.9c0.2-0.6,0.5-1.1,0.9-1.6c0.4-0.4,0.9-0.8,1.4-1c0.5-0.3,1.1-0.4,1.8-0.4c0.7,0,1.3,0.2,1.9,0.5
			c0.5,0.3,1,0.7,1.3,1.3v-1.6h2.5v9.9c0,0.3,0.1,0.5,0.2,0.6s0.3,0.2,0.6,0.2v2.5c-0.3,0-0.5,0.1-0.8,0.1s-0.5,0-0.8,0
			s-0.5,0-0.8-0.1c-0.2-0.1-0.5-0.2-0.7-0.4c-0.2-0.2-0.3-0.4-0.4-0.6s-0.2-0.5-0.2-0.8v-3.5C110.3,20.7,109.3,21.3,107.8,21.3z
			 M108.9,18.8c0.4,0,0.8-0.1,1.1-0.4c0.3-0.2,0.6-0.5,0.9-0.9v-2c-0.1-0.2-0.2-0.4-0.3-0.7c-0.1-0.2-0.3-0.4-0.5-0.5
			c-0.2-0.2-0.4-0.3-0.6-0.4c-0.2-0.1-0.4-0.1-0.7-0.1c-0.3,0-0.6,0.1-0.9,0.2c-0.3,0.1-0.5,0.3-0.7,0.6c-0.2,0.2-0.3,0.5-0.5,0.8
			c-0.1,0.3-0.2,0.6-0.2,1c0,0.7,0.2,1.3,0.6,1.8C107.7,18.6,108.3,18.8,108.9,18.8z"/>
		<path class="st1" d="M118.7,21.3c-1,0-1.7-0.3-2.2-0.9s-0.8-1.5-0.8-2.7v-6.1h2.9V17c0,0.6,0.1,1,0.3,1.3c0.2,0.3,0.6,0.5,1,0.5
			s0.8-0.1,1.1-0.3c0.4-0.2,0.7-0.6,1-1.1v-5.9h2.9v6.2c0,0.3,0,0.5,0.1,0.6s0.3,0.2,0.5,0.2v2.4c-0.3,0.1-0.5,0.1-0.7,0.1
			s-0.4,0-0.5,0c-1,0-1.6-0.4-1.8-1.2l-0.1-0.6c-0.4,0.6-1,1.1-1.6,1.4C120.2,21.1,119.5,21.3,118.7,21.3z"/>
		<path class="st1" d="M129.9,21.3c-0.5,0-0.9-0.1-1.3-0.2c-0.4-0.2-0.8-0.4-1-0.6c-0.3-0.3-0.5-0.6-0.7-1s-0.3-0.8-0.3-1.2
			c0-0.5,0.1-0.9,0.3-1.3c0.2-0.4,0.5-0.7,0.8-1c0.4-0.3,0.8-0.5,1.3-0.7s1-0.2,1.6-0.2c0.4,0,0.8,0,1.2,0.1s0.7,0.2,1,0.3V15
			c0-1.1-0.6-1.6-1.9-1.6c-0.5,0-1,0.1-1.5,0.3s-1,0.4-1.5,0.8l-0.9-1.8c0.6-0.4,1.3-0.7,2-0.9s1.4-0.3,2.2-0.3c1.4,0,2.5,0.3,3.3,1
			s1.2,1.7,1.2,3v2.4c0,0.3,0,0.5,0.1,0.6s0.3,0.2,0.5,0.2v2.4c-0.3,0.1-0.5,0.1-0.7,0.1s-0.4,0-0.6,0c-0.5,0-1-0.1-1.2-0.3
			c-0.3-0.2-0.5-0.5-0.5-0.9l-0.1-0.4c-0.4,0.5-0.9,1-1.5,1.2C131.1,21.1,130.5,21.3,129.9,21.3z M130.7,19.2c0.3,0,0.6-0.1,0.9-0.2
			c0.3-0.1,0.5-0.3,0.7-0.4c0.3-0.2,0.4-0.4,0.4-0.7V17c-0.3-0.1-0.5-0.2-0.8-0.2c-0.3-0.1-0.6-0.1-0.8-0.1c-0.5,0-1,0.1-1.3,0.4
			c-0.3,0.2-0.5,0.6-0.5,0.9s0.1,0.6,0.4,0.9C130,19.1,130.3,19.2,130.7,19.2z"/>
		<path class="st1" d="M143.8,14.1c-0.7,0-1.3,0.1-1.9,0.3c-0.6,0.2-1,0.5-1.2,1v5.7h-2.9v-9.5h2.7v1.9c0.3-0.6,0.7-1.1,1.3-1.5
			c0.5-0.4,1.1-0.5,1.6-0.6c0.1,0,0.2,0,0.3,0s0.1,0,0.2,0v2.7H143.8z"/>
		<path class="st1" d="M149.1,21.3c-0.8,0-1.5-0.1-2.1-0.4s-1.2-0.6-1.6-1.1c-0.4-0.4-0.8-1-1-1.5c-0.2-0.6-0.3-1.2-0.3-1.8
			c0-0.7,0.1-1.3,0.3-1.9c0.2-0.6,0.6-1.1,1-1.6s1-0.8,1.6-1.1s1.4-0.4,2.2-0.4s1.5,0.1,2.2,0.4c0.6,0.3,1.2,0.6,1.6,1.1
			s0.8,1,1,1.6s0.3,1.2,0.3,1.9c0,0.2,0,0.3,0,0.5s0,0.3-0.1,0.4h-7c0,0.6,0.3,1.1,0.7,1.5c0.4,0.3,0.9,0.5,1.4,0.5
			c0.4,0,0.8-0.1,1.2-0.3c0.4-0.2,0.7-0.5,0.8-0.8l2.5,0.7c-0.4,0.7-1,1.4-1.7,1.8C151.1,21,150.2,21.3,149.1,21.3z M151.1,15.4
			c-0.1-0.6-0.3-1.1-0.7-1.4c-0.4-0.3-0.8-0.5-1.4-0.5c-0.6,0-1,0.2-1.4,0.5c-0.4,0.4-0.6,0.8-0.6,1.4H151.1z"/>
	</g>
</g>
</svg>
